<?xml version="1.0" standalone="no"?>
<!DOCTYPE svg PUBLIC "-//W3C//DTD SVG 20010904//EN"
 "http://www.w3.org/TR/2001/REC-SVG-20010904/DTD/svg10.dtd">
<svg version="1.0" xmlns="http://www.w3.org/2000/svg"
 width="1323.000000pt" height="1323.000000pt" viewBox="0 0 1323.000000 1323.000000"
 preserveAspectRatio="xMidYMid meet">
<metadata>
Created by potrace 1.11, written by Peter Selinger 2001-2013
</metadata>
<g transform="translate(0.000000,1323.000000) scale(0.100000,-0.100000)"
fill="#000000" stroke="none">
<path d="M357 8672 l-67 -3 2 -647 3 -647 498 0 497 0 0 157 c0 87 -3 158 -7
159 -5 0 -141 1 -303 2 l-295 2 -1 482 c0 266 -3 485 -6 489 -7 6 -221 10
-321 6z"/>
<path d="M1600 8670 l-105 -5 0 -122 -1 -123 176 0 176 0 -1 119 c0 66 -3 122
-6 125 -8 9 -122 12 -239 6z"/>
<path d="M4595 8670 l-70 -5 1 -635 c1 -349 2 -640 3 -645 1 -7 60 -10 169 -9
92 1 169 2 172 3 3 0 5 108 4 239 0 162 4 255 13 295 14 62 39 118 51 115 4
-1 16 3 27 9 31 16 122 9 145 -12 11 -10 18 -20 16 -23 -3 -2 1 -11 9 -18 11
-12 14 -71 15 -306 0 -161 3 -294 6 -297 3 -3 82 -6 175 -6 l169 0 1 30 c4
141 0 622 -5 669 -5 33 -15 71 -24 84 -9 14 -17 32 -18 40 -3 20 -45 62 -72
73 -13 5 -21 13 -18 17 8 13 -103 46 -166 48 -65 3 -158 -23 -217 -61 -22 -14
-45 -25 -51 -25 -6 0 -9 -4 -6 -9 5 -7 -34 -41 -46 -41 -2 0 -3 106 -3 235 l0
235 -65 1 c-36 0 -83 1 -105 2 -22 1 -72 0 -110 -3z"/>
<path d="M7043 8672 c-47 -3 -53 -6 -54 -25 -1 -22 0 -205 1 -219 0 -5 79 -8
175 -8 l175 0 0 125 0 125 -47 0 c-27 1 -82 2 -123 3 -41 1 -99 1 -127 -1z"/>
<path d="M5605 8458 c0 -60 4 -98 10 -99 5 -1 39 -2 74 -3 l65 -1 0 -1289 c1
-1223 0 -1289 -17 -1292 -10 -1 -25 9 -33 22 -9 13 -22 24 -29 24 -7 0 -15 5
-17 10 -2 6 -13 12 -26 13 -12 0 -22 5 -22 9 0 3 -8 7 -17 7 -73 3 -93 6 -93
13 0 10 -34 10 -44 1 -4 -5 -21 -9 -37 -9 -16 -1 -30 -2 -31 -4 -2 -1 -11 -3
-20 -6 -10 -2 -26 -6 -35 -8 -10 -3 -20 -5 -23 -6 -3 -1 -9 -2 -13 -1 -5 1 -6
-3 -2 -9 3 -5 -2 -13 -12 -17 -10 -3 -31 -20 -47 -37 -15 -17 -22 -22 -15 -11
13 20 13 20 -8 2 -12 -11 -19 -25 -16 -33 3 -8 -1 -14 -10 -14 -13 0 -28 -25
-30 -50 -1 -3 -9 -14 -19 -24 -9 -10 -15 -23 -12 -28 3 -4 2 -8 -3 -8 -4 0 -9
-10 -10 -22 0 -13 -4 -48 -8 -78 -13 -98 -3 -295 15 -317 2 -2 3 -6 4 -10 1
-5 7 -18 14 -29 6 -12 8 -24 5 -28 -3 -3 -1 -6 5 -6 7 0 11 -3 10 -7 -3 -18
22 -60 65 -105 9 -10 17 -23 17 -29 0 -5 5 -7 10 -4 6 3 10 1 10 -4 0 -6 6
-11 13 -11 8 0 22 -9 32 -20 10 -11 20 -18 23 -16 2 3 16 0 31 -6 14 -6 37
-12 51 -13 14 -1 33 -6 43 -10 9 -4 27 -5 40 -2 12 3 33 8 47 11 14 4 38 9 55
12 16 3 35 10 42 16 7 6 13 8 13 4 0 -3 9 3 20 14 11 11 25 20 31 20 5 0 8 4
5 9 -7 11 32 47 41 38 3 -4 7 -30 7 -59 1 -29 5 -59 10 -67 7 -10 6 -12 -3 -6
-8 4 -6 -4 4 -18 9 -15 14 -31 10 -37 -4 -6 -1 -9 6 -8 8 2 19 -18 28 -49 9
-30 22 -53 29 -53 7 0 11 -4 7 -9 -3 -5 -1 -12 5 -16 6 -4 8 -11 5 -16 -4 -5
-2 -9 2 -9 5 0 10 -9 11 -20 4 -45 6 -50 19 -50 8 0 11 -4 8 -10 -3 -5 -1 -10
5 -10 6 0 10 -6 9 -12 -4 -21 13 -68 23 -68 6 0 8 6 5 14 -3 8 1 17 10 20 8 4
13 13 9 21 -3 9 3 24 13 34 10 10 17 25 15 34 -1 9 3 17 9 17 5 0 8 3 4 6 -3
4 0 19 8 34 8 15 11 30 8 34 -4 3 1 6 10 6 9 0 16 3 15 8 -3 11 23 85 35 101
6 7 12 20 13 29 2 8 7 18 11 21 5 3 8 580 8 1281 0 701 1 1281 3 1287 2 7 8
10 13 7 5 -3 7 -10 4 -15 -3 -5 1 -6 9 -3 9 3 16 2 16 -4 0 -5 14 -15 30 -22
17 -7 30 -17 30 -22 0 -5 5 -6 10 -3 6 3 10 1 10 -5 0 -7 6 -10 14 -7 8 3 17
3 21 -1 14 -14 220 -16 220 -2 0 1 11 3 24 6 12 2 34 13 48 24 14 11 30 20 36
20 20 0 66 52 60 68 -5 11 -2 14 11 9 10 -4 15 -3 11 3 -3 6 -1 10 4 10 6 0
11 5 11 11 0 6 9 23 20 39 11 15 17 30 13 34 -3 3 -1 6 6 6 7 0 11 6 8 14 -3
8 -3 17 1 21 6 6 10 30 15 103 1 17 5 32 9 32 10 0 11 114 1 124 -8 8 -11 26
-14 84 -2 23 -6 42 -10 42 -4 0 -6 9 -4 20 2 11 -1 20 -6 20 -6 0 -8 4 -5 9 3
5 -3 19 -13 32 -10 13 -16 30 -14 37 3 6 0 12 -7 12 -6 0 -8 5 -5 10 3 6 2 10
-3 10 -5 0 -15 11 -22 25 -7 14 -20 25 -27 25 -8 0 -12 4 -9 8 3 4 -13 19 -35
32 -21 14 -39 28 -39 33 0 4 -4 5 -10 2 -5 -3 -10 -1 -10 6 0 7 -3 10 -6 6 -4
-3 -21 1 -38 10 -39 20 -152 24 -187 7 -15 -7 -29 -10 -33 -7 -3 4 -6 0 -6 -7
0 -7 -3 -10 -7 -7 -3 4 -13 1 -21 -6 -13 -10 -14 -9 -7 3 4 8 -1 6 -13 -5 -62
-60 -94 -86 -99 -81 -3 3 -7 36 -7 74 l-2 68 76 -1 75 0 1 90 c0 50 -2 95 -5
100 -4 7 -117 11 -326 10 l-320 0 0 -97z m746 -425 c15 -14 26 -30 23 -34 -3
-5 -1 -9 4 -9 17 0 29 -53 30 -140 1 -87 -11 -147 -33 -165 -6 -5 -12 -14 -11
-19 2 -20 -77 -53 -113 -49 -20 3 -38 8 -41 12 -3 3 -18 12 -33 19 -15 7 -25
17 -22 22 3 6 1 10 -4 10 -6 0 -11 7 -11 16 0 8 -4 13 -9 10 -15 -10 -24 52
-22 144 2 106 5 123 19 128 7 2 12 9 12 16 0 18 51 61 86 73 38 13 87 -1 125
-34z m-737 -2425 c-5 -7 18 -12 39 -9 4 0 7 -3 7 -8 0 -5 9 -11 21 -14 11 -3
23 -15 26 -26 3 -12 8 -21 12 -21 16 0 34 -79 32 -144 -3 -121 -5 -137 -18
-131 -7 2 -12 1 -11 -3 4 -14 -13 -52 -23 -52 -6 0 -7 -4 -4 -10 3 -5 0 -7 -8
-4 -8 3 -22 -3 -32 -12 -23 -24 -69 -25 -110 -3 -18 10 -36 15 -41 11 -4 -4
-4 -1 0 6 4 7 1 12 -9 12 -9 0 -14 4 -10 10 3 5 -2 18 -12 29 -39 47 -32 301
9 301 6 0 8 7 4 15 -3 8 0 14 7 12 7 -1 11 3 10 8 -1 6 7 11 18 12 10 1 27 8
38 15 21 15 63 19 55 6z"/>
<path d="M2655 8316 c-75 -26 -109 -48 -162 -103 -23 -24 -44 -43 -47 -43 -3
0 -6 32 -6 70 0 69 0 70 -27 71 -16 1 -31 1 -34 1 -4 -1 -67 -2 -140 -3 l-134
-1 0 -464 c0 -302 3 -464 10 -465 34 -5 338 -3 345 1 5 3 10 134 12 290 3 257
5 288 22 316 25 42 52 56 111 60 68 4 111 -23 122 -74 4 -20 7 -162 7 -314 1
-153 3 -279 6 -279 3 -1 82 -2 175 -3 l171 -1 -2 350 c-1 192 -4 359 -7 370
-3 11 -9 34 -13 50 -4 17 -18 44 -31 61 -12 17 -23 36 -23 42 0 7 -3 11 -7 10
-11 -4 -54 28 -48 34 3 2 -1 5 -7 5 -7 1 -38 10 -68 20 -72 26 -150 26 -225
-1z"/>
<path d="M3655 8317 c-44 -12 -82 -23 -85 -27 -3 -3 -21 -12 -40 -20 -19 -7
-43 -23 -52 -34 -9 -12 -23 -21 -30 -21 -7 0 -17 -10 -23 -22 -5 -13 -14 -23
-20 -23 -18 0 -68 -93 -91 -168 -32 -111 -32 -227 2 -327 14 -44 26 -85 27
-92 0 -7 3 -10 7 -8 3 2 14 -9 23 -24 22 -38 72 -91 86 -91 6 0 15 -9 21 -21
7 -11 14 -18 17 -15 3 3 15 0 27 -6 11 -7 27 -13 35 -14 8 -2 17 -7 20 -13 23
-36 399 -44 488 -10 13 5 23 6 23 3 0 -2 10 4 22 15 11 11 25 18 29 15 11 -7
129 94 129 111 0 8 4 15 10 15 10 0 56 86 70 133 8 25 7 27 -21 27 -16 0 -30
0 -31 -1 -2 0 -16 5 -33 11 -29 11 -116 21 -204 24 -35 1 -44 -3 -47 -17 -3
-24 -32 -67 -44 -67 -6 0 -10 -6 -10 -14 0 -19 -87 -44 -140 -40 -46 4 -100
21 -100 33 0 3 -11 18 -24 32 -13 15 -29 44 -35 65 -15 55 -14 172 3 227 8 26
12 47 9 47 -6 0 59 64 67 65 3 1 17 7 32 13 52 21 209 -3 192 -29 -3 -5 0 -9
5 -9 6 0 11 -7 11 -16 0 -8 4 -13 9 -10 5 3 12 -6 15 -20 6 -21 11 -25 34 -20
15 3 59 8 97 12 39 3 79 7 90 8 12 1 25 5 31 9 6 3 23 8 38 11 39 7 41 10 26
48 -35 96 -79 148 -171 203 -114 67 -339 91 -494 52z"/>
<path d="M8180 8329 c0 -6 -52 -20 -83 -23 -4 -1 -11 -5 -15 -11 -4 -5 -21
-18 -39 -28 -18 -10 -45 -31 -62 -47 -43 -43 -51 -38 -51 29 l0 60 -107 3
c-60 2 -135 1 -167 -2 l-60 -5 0 -465 -1 -465 170 1 c94 1 173 2 178 3 4 0 7
108 7 239 0 131 3 242 6 245 4 4 8 21 9 39 2 18 5 40 7 48 3 8 8 26 12 40 12
45 94 69 166 50 32 -9 40 -17 56 -60 17 -45 19 -79 19 -327 l0 -278 175 0 175
0 0 350 c-1 339 -2 352 -24 415 -16 45 -35 76 -61 100 -48 44 -73 65 -80 66
-3 0 -25 7 -50 14 -47 15 -180 21 -180 9z"/>
<path d="M1609 8310 l-114 -5 0 -465 0 -465 175 0 175 0 0 467 0 467 -61 3
c-33 2 -112 1 -175 -2z"/>
<path d="M6986 7856 c1 -250 4 -461 6 -468 4 -10 43 -13 174 -13 l169 0 3 468
2 467 -177 0 -178 0 1 -454z"/>
<path d="M10346 7497 c3 -10 9 -15 12 -12 3 3 0 11 -7 18 -10 9 -11 8 -5 -6z"/>
<path d="M9994 7399 c-3 -6 -2 -15 3 -20 5 -5 9 -1 9 11 0 23 -2 24 -12 9z"/>
<path d="M10046 7047 c3 -10 9 -15 12 -12 3 3 0 11 -7 18 -10 9 -11 8 -5 -6z"/>
<path d="M280 6720 l0 -250 2615 0 2615 0 0 250 0 250 -2615 0 -2615 0 0 -250z"/>
<path d="M6320 6720 l0 -250 3400 0 3400 0 0 250 0 250 -3400 0 -3400 0 0
-250z"/>
<path d="M3247 6212 c-9 -2 -17 -7 -18 -10 0 -4 -1 -294 -2 -645 l-2 -637 23
-1 c29 -1 349 -1 362 0 12 1 14 1270 2 1286 -6 9 -323 15 -365 7z"/>
<path d="M10373 6207 c-5 -8 -7 -115 -4 -214 l1 -33 175 0 174 0 -1 128 -1
127 -169 0 c-94 0 -172 -4 -175 -8z"/>
<path d="M9083 6186 c-10 -6 -24 -11 -32 -12 -8 -2 -17 -7 -20 -13 -7 -11 -62
-35 -74 -32 -5 1 -6 -3 -3 -8 5 -8 -19 -22 -44 -26 -3 0 -15 -6 -26 -13 -12
-6 -24 -9 -28 -7 -3 3 -3 2 0 -2 3 -4 -14 -17 -37 -28 l-43 -20 0 -87 0 -87
-65 2 -66 2 -2 -133 c-2 -97 1 -132 10 -133 7 -1 37 -2 67 -3 l55 -1 2 -195
c0 -107 2 -208 3 -225 3 -49 23 -155 28 -150 3 3 15 -12 28 -33 12 -20 25 -36
28 -34 3 1 6 -1 7 -5 1 -22 186 -57 254 -48 28 3 70 9 95 11 25 3 54 6 65 9
11 2 26 4 33 4 11 1 13 20 7 94 -3 50 -8 101 -10 112 -2 11 -4 28 -4 37 -1 15
-4 15 -31 1 -36 -17 -136 -14 -133 5 2 7 -2 12 -7 12 -6 0 -10 74 -10 203 l0
204 91 -1 c50 -1 93 3 97 8 9 16 7 248 -3 254 -5 3 -49 5 -97 5 l-88 -1 0 172
c0 183 -1 188 -47 162z"/>
<path d="M1805 6130 c3 -5 8 -10 11 -10 2 0 4 5 4 10 0 6 -5 10 -11 10 -5 0
-7 -4 -4 -10z"/>
<path d="M4469 5861 c-46 -11 -85 -27 -97 -39 -12 -12 -29 -22 -38 -22 -8 0
-13 -4 -10 -8 3 -5 -4 -16 -15 -25 -10 -9 -19 -13 -19 -9 -1 4 -8 -6 -16 -22
-21 -38 -30 -21 -29 54 0 35 -3 60 -10 61 -13 1 -297 1 -310 0 -14 -1 -14
-931 0 -932 46 -4 335 -3 336 1 1 3 2 120 3 260 3 250 9 340 26 340 5 0 12 9
15 21 19 60 189 64 211 5 5 -12 11 -158 14 -325 l5 -304 173 -1 c96 -1 176 3
179 8 8 11 8 641 0 652 -3 5 -8 27 -12 49 -11 67 -27 108 -51 134 -13 13 -21
28 -19 31 3 4 -7 12 -20 18 -14 7 -25 15 -25 20 0 9 -67 32 -110 38 -14 2 -43
5 -65 8 -22 3 -74 -3 -116 -13z"/>
<path d="M7950 5877 c-3 -3 -32 -8 -65 -12 -33 -3 -82 -11 -110 -17 -27 -7
-54 -11 -58 -10 -5 1 -6 -2 -3 -7 4 -5 -3 -13 -14 -16 -12 -4 -34 -20 -51 -35
-16 -16 -29 -26 -29 -22 0 4 -10 -13 -23 -38 -12 -25 -26 -48 -31 -51 -5 -4
-9 -40 -8 -80 0 -60 5 -83 26 -122 27 -50 72 -96 94 -97 7 0 11 -4 7 -10 -5
-8 70 -36 88 -32 5 2 20 -4 35 -13 15 -8 60 -19 101 -24 41 -5 77 -13 80 -18
3 -4 11 -8 16 -8 64 -2 129 -20 150 -41 31 -31 31 -53 2 -88 -34 -39 -83 -48
-196 -34 -7 1 -22 15 -32 32 -10 17 -19 27 -19 21 -1 -5 -7 4 -14 21 -15 34
-8 33 -171 19 -98 -9 -141 -12 -181 -14 l-32 -1 19 -37 c10 -21 19 -44 19 -52
0 -16 7 -24 70 -88 23 -24 47 -43 53 -43 6 0 18 -7 27 -15 27 -24 189 -50 315
-50 133 1 285 26 306 51 6 8 17 14 25 14 7 0 24 11 37 24 14 14 27 22 31 19 3
-3 10 6 16 21 5 15 16 29 24 32 17 7 59 126 58 167 -1 41 -30 121 -53 149 -12
12 -24 28 -27 33 -11 17 -107 75 -124 75 -9 0 -32 7 -51 15 -36 15 -49 17
-192 31 -38 3 -90 14 -115 24 -106 41 -75 130 45 130 64 0 110 -21 126 -60
l14 -32 68 6 c38 3 73 8 77 11 5 3 48 8 97 11 91 7 112 17 89 44 -8 8 -22 31
-31 50 -20 38 -78 97 -107 106 -10 3 -18 9 -18 14 0 9 -72 27 -140 35 -98 10
-215 17 -220 12z"/>
<path d="M10068 5874 c-4 -4 -24 -8 -44 -10 -20 -2 -44 -10 -54 -19 -9 -8 -20
-13 -23 -10 -4 3 -5 2 -2 -2 3 -3 -3 -12 -13 -19 -9 -7 -17 -16 -17 -21 0 -8
-41 -53 -49 -53 -2 0 -4 15 -4 33 0 17 0 43 -1 57 l-1 25 -157 -2 c-87 -1
-161 -2 -165 -2 -5 -1 -8 -210 -8 -466 l0 -465 28 -1 c133 -4 306 -3 315 3 7
4 11 83 12 230 2 190 5 235 23 301 28 105 58 135 139 135 32 0 65 -4 73 -8 21
-10 40 -1 40 19 0 10 3 21 8 25 4 4 7 11 7 14 2 24 18 51 27 46 6 -4 8 -2 5 4
-4 5 2 31 13 56 10 25 16 46 12 46 -4 0 1 6 10 13 20 16 10 36 -21 42 -12 2
-31 7 -41 10 -10 3 -27 7 -37 9 -10 2 -29 7 -43 11 -14 3 -29 3 -32 -1z"/>
<path d="M11420 5877 c-3 -3 -29 -8 -59 -11 -62 -7 -144 -26 -151 -35 -11 -13
-68 -40 -74 -36 -3 3 -4 2 -1 -2 5 -7 -36 -39 -47 -36 -4 2 -10 -6 -13 -17 -4
-11 -14 -24 -24 -29 -9 -5 -26 -28 -37 -50 -10 -23 -22 -41 -25 -41 -12 0 -52
-164 -54 -220 -3 -51 43 -266 53 -255 3 2 14 -15 25 -38 12 -23 29 -48 39 -55
10 -7 18 -19 18 -25 0 -7 14 -18 32 -25 17 -6 29 -14 25 -18 -9 -9 93 -60 137
-68 135 -25 286 -26 406 -3 56 11 86 21 98 33 7 8 18 12 23 9 5 -4 9 -1 9 4 0
6 6 11 13 11 7 0 26 13 42 30 15 16 33 27 38 23 6 -3 7 -1 3 5 -3 6 0 14 7 19
21 13 67 78 67 95 0 20 -54 29 -246 42 -90 7 -92 6 -108 -19 -9 -14 -21 -23
-26 -20 -6 4 -10 0 -10 -9 0 -28 -125 -43 -172 -19 -60 30 -108 100 -108 161
0 15 -23 14 360 17 179 1 330 3 336 4 18 2 7 189 -13 226 -6 11 -11 22 -11 25
0 11 -26 95 -32 100 -3 3 -23 29 -45 58 -21 28 -44 52 -50 52 -6 0 -17 9 -25
20 -8 11 -29 25 -47 31 -18 6 -33 14 -33 18 0 8 -75 26 -150 35 -82 11 -165
18 -170 13z m97 -216 c12 -1 30 -9 40 -19 10 -11 26 -22 36 -25 9 -4 16 -10
15 -14 -1 -4 3 -17 9 -28 6 -11 13 -39 17 -62 l5 -43 -54 -1 c-30 0 -73 -1
-95 -1 -191 0 -190 0 -186 25 3 12 5 31 5 43 1 11 9 29 19 40 10 10 21 27 25
37 3 9 13 17 21 17 8 0 16 5 18 11 4 11 64 27 88 23 8 -1 25 -3 37 -3z"/>
<path d="M12580 5877 c-3 -3 -32 -8 -65 -12 -33 -3 -67 -7 -75 -9 -68 -13 -90
-19 -90 -26 0 -4 -10 -10 -23 -14 -28 -7 -106 -83 -119 -116 -5 -14 -15 -47
-22 -75 -12 -45 -11 -56 10 -117 22 -64 77 -138 104 -138 6 0 9 -4 6 -8 -6
-10 137 -54 244 -76 41 -9 82 -18 90 -20 8 -2 35 -7 60 -11 54 -9 83 -23 75
-36 -4 -5 -1 -8 5 -7 15 4 22 -28 15 -60 -13 -54 -149 -76 -237 -37 -10 4 -15
11 -12 16 3 5 -2 9 -10 9 -8 0 -20 15 -27 34 -8 22 -18 33 -28 31 -9 -2 -66
-6 -126 -10 -61 -4 -121 -9 -135 -10 -14 -2 -36 -3 -49 -4 -21 -1 -23 -4 -16
-38 4 -21 11 -43 16 -49 5 -6 5 -15 1 -19 -4 -5 -2 -5 4 -2 7 4 18 -6 26 -23
15 -31 77 -85 109 -95 11 -4 17 -11 13 -16 -3 -5 -2 -9 3 -7 4 1 22 -1 38 -5
128 -31 281 -40 390 -25 113 16 133 21 189 49 33 16 55 29 50 29 -5 0 3 8 18
18 34 22 87 101 94 139 18 90 2 194 -33 231 -7 7 -18 21 -25 31 -7 10 -30 27
-50 38 -21 11 -35 23 -31 27 3 3 0 6 -8 7 -22 1 -40 6 -89 22 -25 9 -67 19
-95 22 -59 7 -103 12 -163 20 -24 4 -58 14 -75 24 -26 15 -32 24 -33 54 -2 53
15 62 110 62 76 0 84 -2 109 -27 15 -15 27 -34 27 -43 0 -14 10 -16 71 -11 40
4 75 9 80 11 6 5 117 15 177 18 14 0 17 27 3 27 -5 0 -14 15 -20 33 -12 35
-68 100 -117 134 -49 34 -92 43 -284 59 -41 3 -77 4 -80 1z"/>
<path d="M6367 5850 c-10 -4 -12 -82 -11 -340 0 -184 4 -354 8 -377 6 -37 65
-161 66 -138 0 6 8 -2 18 -18 10 -15 21 -24 25 -21 4 4 9 0 13 -9 5 -15 48
-31 109 -43 11 -2 32 -6 47 -10 43 -9 188 24 233 54 22 15 44 25 48 24 5 -1 6
1 3 6 -6 10 35 48 47 44 5 -1 6 2 3 7 -3 5 1 14 9 21 17 14 17 15 15 -67 -1
-46 2 -63 12 -64 18 -1 290 -1 308 0 13 1 15 59 14 463 l-2 462 -23 6 c-20 4
-194 5 -301 1 l-27 -1 -4 -257 c-2 -142 -6 -267 -9 -278 -4 -11 -7 -30 -7 -42
-1 -12 -8 -28 -16 -36 -8 -8 -12 -17 -9 -20 3 -3 -11 -13 -31 -22 -43 -21
-136 -15 -161 9 -8 9 -13 16 -10 16 3 0 -3 17 -12 38 -15 34 -17 75 -17 318
l0 279 -163 0 c-89 0 -168 -2 -175 -5z"/>
<path d="M10372 5842 c-10 -27 -7 -922 3 -923 14 -1 284 -1 317 0 l27 1 0 465
c-1 347 -4 465 -12 466 -7 0 -83 1 -171 2 -124 2 -160 -1 -164 -11z"/>
<path d="M1857 5781 c-4 -17 -3 -21 5 -13 5 5 8 16 6 23 -3 8 -7 3 -11 -10z"/>
<path d="M1500 5670 c0 -5 5 -10 11 -10 5 0 7 5 4 10 -3 6 -8 10 -11 10 -2 0
-4 -4 -4 -10z"/>
<path d="M1550 5440 c0 -5 5 -10 11 -10 5 0 7 5 4 10 -3 6 -8 10 -11 10 -2 0
-4 -4 -4 -10z"/>
</g>
</svg>
